<?xml version="1.0" encoding="UTF-8" standalone="no"?>
<!DOCTYPE svg PUBLIC "-//W3C//DTD SVG 1.1//EN" "http://www.w3.org/Graphics/SVG/1.1/DTD/svg11.dtd">
<svg width="100%" height="100%" viewBox="0 0 2481 3508" version="1.1" xmlns="http://www.w3.org/2000/svg" xmlns:xlink="http://www.w3.org/1999/xlink" xml:space="preserve" xmlns:serif="http://www.serif.com/" style="fill-rule:evenodd;clip-rule:evenodd;stroke-linecap:round;stroke-linejoin:round;stroke-miterlimit:1.5;">
    <g transform="matrix(0.468614,0.883403,-0.883403,0.468614,1725.79,-788.355)">
        <g transform="matrix(0.223961,-0.436807,0.446914,0.229143,649.015,1666.67)">
            <path d="M840.922,1248.61L1753.46,1248.61C1737.3,883.675 1426.7,795.864 1280.55,797.979C1133.14,800.113 870.193,897.253 840.922,1248.61Z" style="fill:white;stroke:black;stroke-opacity:0;stroke-width:2.01px;"/>
        </g>
        <g transform="matrix(0.289375,-0.571334,0.509679,0.258148,294.48,2191.74)">
            <path d="M840.922,1248.61L1753.46,1248.61C1737.3,883.675 1426.7,795.864 1280.55,797.979C1133.14,800.113 870.193,897.253 840.922,1248.61Z" style="fill:rgb(92,161,159);stroke:black;stroke-opacity:0;stroke-width:1.65px;"/>
        </g>
        <g transform="matrix(0.300683,-0.62549,0.607276,0.291927,562.082,1404.98)">
            <path d="M840.922,1248.61L1753.46,1248.61C1737.3,883.675 1426.7,795.864 1280.55,797.979C1133.14,800.113 870.193,897.253 840.922,1248.61Z" style="fill:rgb(92,161,159);stroke:black;stroke-opacity:0;stroke-width:1.46px;"/>
        </g>
    </g>
</svg>
